<?xml version="1.0" encoding="UTF-8" standalone="no"?>
<!-- Created with Inkscape (http://www.inkscape.org/) -->

<svg
   xmlns:dc="http://purl.org/dc/elements/1.1/"
   xmlns:cc="http://creativecommons.org/ns#"
   xmlns:rdf="http://www.w3.org/1999/02/22-rdf-syntax-ns#"
   xmlns:svg="http://www.w3.org/2000/svg"
   xmlns="http://www.w3.org/2000/svg"
   xmlns:sodipodi="http://sodipodi.sourceforge.net/DTD/sodipodi-0.dtd"
   xmlns:inkscape="http://www.inkscape.org/namespaces/inkscape"
   width="192"
   height="192"
   viewBox="0 0 192 192"
   id="svg2"
   version="1.1"
   inkscape:version="0.92.4 (5da689c313, 2019-01-14)"
   sodipodi:docname="icon.svg">
  <defs
     id="defs4">
    <filter
       style="color-interpolation-filters:sRGB;"
       inkscape:label="Drop Shadow"
       id="filter4851">
      <feFlood
         flood-opacity="0.2"
         flood-color="rgb(0,0,0)"
         result="flood"
         id="feFlood4853" />
      <feComposite
         in="flood"
         operator="in"
         result="composite1"
         id="feComposite4855"
         in2="SourceGraphic" />
      <feGaussianBlur
         in="composite1"
         stdDeviation="4"
         result="blur"
         id="feGaussianBlur4857" />
      <feOffset
         dx="4.63518e-015"
         dy="4"
         result="offset"
         id="feOffset4859" />
      <feComposite
         in="SourceGraphic"
         in2="offset"
         operator="over"
         result="composite2"
         id="feComposite4861" />
    </filter>
  </defs>
  <sodipodi:namedview
     id="base"
     pagecolor="#ffffff"
     bordercolor="#666666"
     borderopacity="1.0"
     inkscape:pageopacity="0.0"
     inkscape:pageshadow="2"
     inkscape:zoom="5.6"
     inkscape:cx="82.686304"
     inkscape:cy="91.165668"
     inkscape:document-units="px"
     inkscape:current-layer="layer1"
     showgrid="false"
     inkscape:window-width="2560"
     inkscape:window-height="1361"
     inkscape:window-x="2551"
     inkscape:window-y="-9"
     inkscape:window-maximized="1"
     units="px" />
  <metadata
     id="metadata7">
    <rdf:RDF>
      <cc:Work
         rdf:about="">
        <dc:format>image/svg+xml</dc:format>
        <dc:type
           rdf:resource="http://purl.org/dc/dcmitype/StillImage" />
        <dc:title />
      </cc:Work>
    </rdf:RDF>
  </metadata>
  <g
     inkscape:label="Ebene 1"
     inkscape:groupmode="layer"
     id="layer1"
     transform="translate(0,-860.36216)">
    <rect
       style="color:#000000;clip-rule:nonzero;display:inline;overflow:visible;visibility:visible;opacity:1;isolation:auto;mix-blend-mode:normal;color-interpolation:sRGB;color-interpolation-filters:linearRGB;solid-color:#000000;solid-opacity:1;fill:#eeeeee;fill-opacity:1;fill-rule:evenodd;stroke:none;stroke-width:10;stroke-linecap:butt;stroke-linejoin:round;stroke-miterlimit:4;stroke-dasharray:none;stroke-dashoffset:0;stroke-opacity:1;color-rendering:auto;image-rendering:auto;shape-rendering:auto;text-rendering:auto;enable-background:accumulate;filter:url(#filter4851)"
       id="rect4375"
       width="152"
       height="152"
       x="20"
       y="880.36218"
       rx="20"
       ry="20" />
    <g
       id="g825"
       transform="matrix(0.26295208,0,0,0.26295208,29.394361,889.32758)">
		<path
   id="path821"
   d="M 408.767,279.009 C 408.767,197.603 382.135,16.221 381.001,8.54 380.561,5.556 378.797,2.93 376.2,1.394 373.605,-0.142 370.455,-0.424 367.626,0.626 364.844,1.66 298.722,26.47 231.505,72.708 191.739,100.062 159.984,129.242 137.118,159.437 108,197.891 93.236,238.12 93.236,279.009 c 0,76.463 47.07405,140.386 119.38205,154.743 3.514,22.286 8.365,42.911 14.446,61.376 1.386,4.208 5.77137,6.875 9.97137,6.875 1.037,0 9.22258,-0.163 10.26058,-0.505 5.246,-1.728 7.61039,-7.24381 6.37,-12.626 -3.68802,-16.01078 -5.0179,-33.60678 -5.12405,-52.427 3.33,0.211 6.684,0.33 10.066,0.33 86.992,0 150.15905,-70.773 150.15905,-157.766 z m -282.69596,-0.50933 c 0,-83.096 62.69905,-140.85672 121.67605,-181.487721 38.688,-26.653 64.55341,-43.52559 90.04841,-55.10659 -21.156,30.55 -54.6975,84.043641 -79.4295,147.861641 -1.996,5.15 0.562,10.942 5.711,12.938 1.188,0.46 5.77056,1.69665 6.97256,1.69665 4.008,0 12.03539,-3.44565 13.57039,-7.40765 24.864,-64.158 57.24599,-114.997103 76.73799,-142.920103 7.592,54.999003 12.19616,163.546103 12.19616,224.934103 0,75.964 -46.5901,122.5541 -122.5541,122.5541 -75.964,0 -124.92896,-47.09843 -124.92896,-123.06243 z"
   inkscape:connector-curvature="0"
   sodipodi:nodetypes="scccccsccscccsssccccsccsss" />

		<path
   id="path823"
   d="M 255.61953,230.52303 C 248.14917,230.00817 243.091,239.125 242.055,244.55 c -2.063,10.814 -3.182,21.082 -3.325,30.518 -0.084,5.522 2.48206,11.57876 11.9692,12.18831 9.48713,0.60954 15.30798,-7.0884 15.63375,-11.88431 0.126,-8.283 1.12691,-17.39183 2.974,-27.074 1.03491,-5.42483 -1.81188,-16.96498 -13.68742,-17.77497 z"
   inkscape:connector-curvature="0"
   sodipodi:nodetypes="ccczcsc" />

	</g>
  </g>
</svg>
